<svg xmlns="http://www.w3.org/2000/svg" xmlns:xlink="http://www.w3.org/1999/xlink" version="1.1" width="256" height="256" viewBox="0 0 256 256" xml:space="preserve">

<defs>
</defs>
<g style="stroke: none; stroke-width: 0; stroke-dasharray: none; stroke-linecap: butt; stroke-linejoin: miter; stroke-miterlimit: 10; fill: none; fill-rule: nonzero; opacity: 1;" transform="translate(1.4065934065934016 1.4065934065934016) scale(2.81 2.81)" >
	<ellipse cx="46.887" cy="27.545" rx="19.277" ry="11.955" style="stroke: none; stroke-width: 1; stroke-dasharray: none; stroke-linecap: butt; stroke-linejoin: miter; stroke-miterlimit: 10; fill: rgb(185,166,29); fill-rule: nonzero; opacity: 1;" transform=" matrix(0.4044 -0.9146 0.9146 0.4044 2.7371 59.2847) "/>
	<path d="M 54.681 9.911 c 5.463 4.549 6.957 13.829 3.138 22.465 S 46.132 46.151 39.09 45.171 L 54.681 9.911 z" style="stroke: none; stroke-width: 1; stroke-dasharray: none; stroke-linecap: butt; stroke-linejoin: miter; stroke-miterlimit: 10; fill: rgb(206,185,35); fill-rule: nonzero; opacity: 1;" transform=" matrix(1 0 0 1 0 0) " stroke-linecap="round" />
	<ellipse cx="25.375" cy="27.537" rx="11.955" ry="19.277" style="stroke: none; stroke-width: 1; stroke-dasharray: none; stroke-linecap: butt; stroke-linejoin: miter; stroke-miterlimit: 10; fill: rgb(185,166,29); fill-rule: nonzero; opacity: 1;" transform=" matrix(0.7071 -0.7071 0.7071 0.7071 -12.0421 26.0096) "/>
	<path d="M 11.745 13.91 c 6.214 -3.454 15.407 -1.499 22.084 5.178 s 8.632 15.87 5.178 22.084 L 11.745 13.91 z" style="stroke: none; stroke-width: 1; stroke-dasharray: none; stroke-linecap: butt; stroke-linejoin: miter; stroke-miterlimit: 10; fill: rgb(206,185,35); fill-rule: nonzero; opacity: 1;" transform=" matrix(1 0 0 1 0 0) " stroke-linecap="round" />
	<ellipse cx="18.535" cy="47.097" rx="11.955" ry="19.277" style="stroke: none; stroke-width: 1; stroke-dasharray: none; stroke-linecap: butt; stroke-linejoin: miter; stroke-miterlimit: 10; fill: rgb(185,166,29); fill-rule: nonzero; opacity: 1;" transform=" matrix(0.2755 -0.9613 0.9613 0.2755 -31.8473 51.937) "/>
	<path d="M 0 41.786 c 3.759 -6.034 12.747 -8.783 21.824 -6.182 c 9.077 2.601 15.246 9.693 15.238 16.802 L 0 41.786 z" style="stroke: none; stroke-width: 1; stroke-dasharray: none; stroke-linecap: butt; stroke-linejoin: miter; stroke-miterlimit: 10; fill: rgb(206,185,35); fill-rule: nonzero; opacity: 1;" transform=" matrix(1 0 0 1 0 0) " stroke-linecap="round" />
	<circle cx="56.358000000000004" cy="50.718" r="13.108" style="stroke: none; stroke-width: 1; stroke-dasharray: none; stroke-linecap: butt; stroke-linejoin: miter; stroke-miterlimit: 10; fill: rgb(225,57,25); fill-rule: nonzero; opacity: 1;" transform="  matrix(1 0 0 1 0 0) "/>
	<path d="M 47.25 50.723 c 0 -6.874 4.486 -12.502 10.191 -13.054 c -0.358 -0.029 -0.717 -0.055 -1.083 -0.055 c -7.24 0 -13.108 5.869 -13.108 13.108 s 5.869 13.108 13.108 13.108 c 0.365 0 0.725 -0.025 1.083 -0.055 C 51.737 63.224 47.25 57.597 47.25 50.723 z" style="stroke: none; stroke-width: 1; stroke-dasharray: none; stroke-linecap: butt; stroke-linejoin: miter; stroke-miterlimit: 10; fill: rgb(209,51,21); fill-rule: nonzero; opacity: 1;" transform=" matrix(1 0 0 1 0 0) " stroke-linecap="round" />
	<circle cx="76.888" cy="60.318" r="13.108" style="stroke: none; stroke-width: 1; stroke-dasharray: none; stroke-linecap: butt; stroke-linejoin: miter; stroke-miterlimit: 10; fill: rgb(225,57,25); fill-rule: nonzero; opacity: 1;" transform="  matrix(1 0 0 1 0 0) "/>
	<circle cx="53.117999999999995" cy="67.098" r="13.108" style="stroke: none; stroke-width: 1; stroke-dasharray: none; stroke-linecap: butt; stroke-linejoin: miter; stroke-miterlimit: 10; fill: rgb(225,57,25); fill-rule: nonzero; opacity: 1;" transform="  matrix(1 0 0 1 0 0) "/>
	<circle cx="36.868" cy="52.617999999999995" r="13.108" style="stroke: none; stroke-width: 1; stroke-dasharray: none; stroke-linecap: butt; stroke-linejoin: miter; stroke-miterlimit: 10; fill: rgb(225,57,25); fill-rule: nonzero; opacity: 1;" transform="  matrix(1 0 0 1 0 0) "/>
	<path d="M 67.783 60.317 c 0 -6.874 4.486 -12.502 10.191 -13.054 c -0.358 -0.029 -0.717 -0.055 -1.083 -0.055 c -7.24 0 -13.108 5.869 -13.108 13.108 s 5.869 13.108 13.108 13.108 c 0.365 0 0.725 -0.025 1.083 -0.055 C 72.27 72.819 67.783 67.191 67.783 60.317 z" style="stroke: none; stroke-width: 1; stroke-dasharray: none; stroke-linecap: butt; stroke-linejoin: miter; stroke-miterlimit: 10; fill: rgb(209,51,21); fill-rule: nonzero; opacity: 1;" transform=" matrix(1 0 0 1 0 0) " stroke-linecap="round" />
	<path d="M 44.011 67.1 c 0 -6.874 4.486 -12.502 10.191 -13.054 c -0.358 -0.029 -0.717 -0.055 -1.083 -0.055 c -7.24 0 -13.108 5.869 -13.108 13.108 S 45.88 80.208 53.12 80.208 c 0.365 0 0.725 -0.025 1.083 -0.055 C 48.498 79.602 44.011 73.974 44.011 67.1 z" style="stroke: none; stroke-width: 1; stroke-dasharray: none; stroke-linecap: butt; stroke-linejoin: miter; stroke-miterlimit: 10; fill: rgb(209,51,21); fill-rule: nonzero; opacity: 1;" transform=" matrix(1 0 0 1 0 0) " stroke-linecap="round" />
	<path d="M 27.756 52.617 c 0 -6.874 4.486 -12.502 10.191 -13.054 c -0.358 -0.029 -0.717 -0.055 -1.083 -0.055 c -7.24 0 -13.108 5.869 -13.108 13.108 s 5.869 13.108 13.108 13.108 c 0.365 0 0.725 -0.025 1.083 -0.055 C 32.242 65.119 27.756 59.491 27.756 52.617 z" style="stroke: none; stroke-width: 1; stroke-dasharray: none; stroke-linecap: butt; stroke-linejoin: miter; stroke-miterlimit: 10; fill: rgb(209,51,21); fill-rule: nonzero; opacity: 1;" transform=" matrix(1 0 0 1 0 0) " stroke-linecap="round" />
	<circle cx="50.78" cy="73.08999999999999" r="1.99" style="stroke: none; stroke-width: 1; stroke-dasharray: none; stroke-linecap: butt; stroke-linejoin: miter; stroke-miterlimit: 10; fill: rgb(53,50,49); fill-rule: nonzero; opacity: 1;" transform="  matrix(1 0 0 1 0 0) "/>
	<circle cx="84.78" cy="60.09" r="1.99" style="stroke: none; stroke-width: 1; stroke-dasharray: none; stroke-linecap: butt; stroke-linejoin: miter; stroke-miterlimit: 10; fill: rgb(53,50,49); fill-rule: nonzero; opacity: 1;" transform="  matrix(1 0 0 1 0 0) "/>
	<circle cx="34.78" cy="58.09" r="1.99" style="stroke: none; stroke-width: 1; stroke-dasharray: none; stroke-linecap: butt; stroke-linejoin: miter; stroke-miterlimit: 10; fill: rgb(53,50,49); fill-rule: nonzero; opacity: 1;" transform="  matrix(1 0 0 1 0 0) "/>
	<circle cx="64.78" cy="47.09" r="1.99" style="stroke: none; stroke-width: 1; stroke-dasharray: none; stroke-linecap: butt; stroke-linejoin: miter; stroke-miterlimit: 10; fill: rgb(53,50,49); fill-rule: nonzero; opacity: 1;" transform="  matrix(1 0 0 1 0 0) "/>
</g>
</svg>